<svg xmlns="http://www.w3.org/2000/svg" viewBox="0 0 32 32" width="96" height="96" role="img" aria-label="Oriel logo">
  <defs>
    <linearGradient id="oriel-bg" x1="0" y1="0" x2="0" y2="1">
      <stop offset="0" stop-color="#6b6be4"/>
      <stop offset="1" stop-color="#4f4fce"/>
    </linearGradient>
  </defs>
  <rect width="32" height="32" rx="7.5" fill="url(#oriel-bg)"/>
  <g transform="translate(7 7) scale(0.75)" fill="none" stroke="#fff" stroke-width="2.6" stroke-linecap="round" stroke-linejoin="round">
    <path d="M21 8a2 2 0 0 0-1-1.73l-7-4a2 2 0 0 0-2 0l-7 4A2 2 0 0 0 3 8v8a2 2 0 0 0 1 1.73l7 4a2 2 0 0 0 2 0l7-4A2 2 0 0 0 21 16Z"/>
    <path d="m3.3 7 8.7 5 8.7-5"/>
    <path d="M12 22V12"/>
  </g>
</svg>
